<?xml version="1.0" standalone="no"?>
<!DOCTYPE svg PUBLIC "-//W3C//DTD SVG 20010904//EN"
 "http://www.w3.org/TR/2001/REC-SVG-20010904/DTD/svg10.dtd">
<svg version="1.0" xmlns="http://www.w3.org/2000/svg"
 width="1672.000000pt" height="941.000000pt" viewBox="0 0 1672.000000 941.000000"
 preserveAspectRatio="xMidYMid meet">

<g transform="translate(0.000000,941.000000) scale(0.100000,-0.100000)"
fill="#000000" stroke="none">
<path d="M0 4705 l0 -4705 8360 0 8360 0 0 4705 0 4705 -8360 0 -8360 0 0
-4705z m2285 1914 c-90 -52 -108 -70 -137 -132 l-23 -52 -3 -547 -3 -548 766
0 765 0 0 -302 0 -302 -97 95 c-54 52 -135 125 -179 162 l-82 67 -586 0 -586
0 -1 -447 0 -448 -257 -210 c-140 -115 -259 -211 -264 -213 -4 -2 -8 608 -8
1355 l0 1359 -26 52 c-24 49 -41 64 -160 139 -15 9 87 12 466 12 l485 1 -70
-41z m4025 -1664 l0 -1635 -25 0 -25 0 0 1635 0 1635 25 0 25 0 0 -1635z
m-650 1292 c0 -3 -200 -373 -214 -396 -6 -9 -13 -1 -26 26 -21 47 -59 79 -110
93 -23 6 -153 9 -327 8 l-288 -3 -3 -1075 c-2 -941 0 -1082 13 -1134 29 -112
83 -178 247 -303 l88 -68 -91 -3 -91 -3 -38 35 c-21 19 -139 110 -262 202
-122 92 -320 243 -438 334 -118 91 -289 222 -380 290 -129 97 -419 320 -496
381 -7 6 -65 -32 -160 -103 -82 -62 -286 -211 -454 -332 -438 -316 -762 -552
-940 -686 l-155 -117 -97 -6 c-61 -4 -98 -3 -98 3 0 6 4 10 10 10 11 0 121 89
601 486 200 165 425 349 499 409 74 61 250 204 390 320 395 325 388 320 408
303 280 -240 411 -352 571 -483 107 -88 233 -192 280 -232 l86 -72 3 912 c1
502 0 918 -3 925 -3 9 -81 12 -343 12 l-339 0 -61 -30 c-72 -37 -86 -56 -192
-269 -41 -83 -78 -151 -82 -151 -5 0 -8 162 -8 360 l0 360 1250 0 c688 0 1250
-1 1250 -3z m5012 -32 c2 -3 3 -18 0 -35 l-4 -29 -59 6 -59 6 0 -172 0 -171
-35 0 -35 0 -2 167 -3 167 -25 1 c-105 5 -100 3 -100 35 l0 30 158 0 c87 0
161 -2 164 -5z m390 -77 l3 -83 90 0 90 0 3 83 3 82 34 0 35 0 0 -200 0 -200
-35 0 -34 0 -3 83 -3 82 -90 0 -90 0 -3 -82 -3 -83 -34 0 -35 0 0 200 0 200
35 0 34 0 3 -82z m880 77 c3 -3 3 -16 0 -30 -4 -24 -7 -24 -111 -27 l-106 -3
-3 -47 -3 -48 100 0 101 0 0 -35 0 -35 -100 0 -100 0 0 -55 0 -55 115 0 115 0
0 -30 0 -30 -150 0 -150 0 0 200 0 200 143 0 c79 0 146 -2 149 -5z m-2014
-207 l3 -28 -1435 0 -1436 0 0 23 c0 13 3 27 7 30 3 4 648 6 1432 5 l1426 -3
3 -27z m5730 0 l3 -28 -1610 0 -1611 0 0 23 c0 13 3 27 7 30 3 4 727 6 1607 5
l1601 -3 3 -27z m-8398 -743 l0 -195 210 0 210 0 0 195 0 195 95 0 95 0 -2
-471 -3 -471 -87 -3 -88 -4 0 157 c0 86 -3 174 -6 195 l-7 37 -208 0 -209 0
-2 -191 -3 -191 -86 -1 -86 -2 -7 119 c-3 66 -6 278 -6 473 l0 353 95 0 95 0
0 -195z m1920 110 l0 -85 -255 0 -255 0 0 -110 0 -110 230 0 231 0 -3 -80 -3
-80 -226 0 c-264 0 -239 15 -239 -137 l0 -93 265 0 265 0 0 -80 0 -80 -287 -1
c-159 -1 -318 -2 -355 -3 l-68 -1 0 472 0 473 350 0 350 0 0 -85z m1156 62
c80 -26 138 -77 175 -152 29 -60 31 -70 27 -148 -3 -67 -9 -93 -30 -128 -35
-59 -73 -94 -130 -119 -27 -11 -48 -23 -48 -26 0 -3 54 -81 120 -173 66 -93
120 -170 120 -172 0 -2 -47 -4 -104 -4 l-104 0 -79 111 c-43 60 -94 133 -113
162 l-35 51 -92 1 -93 0 0 -159 0 -159 -87 -4 c-49 -2 -89 -4 -90 -3 -2 1 -6
214 -9 474 l-7 473 264 -4 c213 -3 274 -8 315 -21z m1380 -17 c91 -46 127
-101 132 -201 5 -87 -21 -148 -81 -187 l-40 -27 42 -18 c55 -24 108 -78 120
-124 42 -149 -27 -277 -173 -322 -62 -19 -92 -21 -337 -21 l-269 0 0 471 0
470 269 -3 268 -3 69 -35z m1444 -45 l0 -85 -255 0 -255 0 0 -110 0 -110 225
0 225 0 0 -80 0 -80 -225 0 -225 0 0 -115 0 -115 255 0 255 0 0 -82 0 -83
-348 0 -347 0 -3 473 -2 472 350 0 350 0 0 -85z m1160 57 c70 -28 123 -71 157
-129 36 -62 45 -190 18 -260 -24 -63 -85 -126 -145 -152 -28 -12 -50 -24 -50
-26 0 -4 115 -169 204 -292 l38 -53 -79 -1 c-43 -1 -90 -2 -105 -2 -24 -1 -41
17 -134 149 -58 82 -108 155 -111 162 -4 8 -33 12 -98 12 l-92 0 -7 -86 c-3
-47 -4 -90 0 -95 3 -6 3 -40 -1 -77 l-7 -67 -84 0 -84 0 0 135 c0 74 -3 280
-7 456 -3 177 -3 329 0 338 6 16 29 17 269 14 243 -3 267 -5 318 -26z m1431
24 c2 -2 3 -42 1 -88 l-3 -83 -142 -1 -142 -2 -5 -382 -5 -382 -86 -1 -86 -2
-7 155 c-3 85 -6 257 -6 382 l0 227 -46 7 c-25 3 -71 3 -103 0 -32 -4 -77 -4
-100 0 l-41 7 0 83 0 84 383 0 c211 0 386 -2 388 -4z m-5703 -1349 l3 -37 -69
0 -69 0 -6 -122 c-4 -66 -7 -147 -7 -178 l0 -58 -35 -4 -35 -4 0 183 0 183
-70 0 -70 0 0 38 0 37 177 0 178 -1 3 -37z m880 35 c18 -2 22 -8 22 -37 l0
-35 -125 0 -125 0 0 -55 0 -55 110 0 110 0 0 -35 0 -35 -110 0 -111 0 3 -57 3
-58 123 3 122 2 0 -35 0 -35 -158 0 -159 0 -6 211 c-4 116 -5 214 -3 217 4 6
251 9 304 4z m856 -14 c20 -33 180 -408 175 -412 -2 -2 -19 -6 -38 -8 -32 -3
-35 -1 -54 50 l-20 52 -106 0 -107 0 -26 -53 c-24 -50 -29 -54 -62 -54 -20 0
-36 2 -36 4 0 2 24 58 54 126 29 67 70 160 91 207 20 47 41 91 47 98 17 20 66
15 82 -10z m886 -78 c35 -55 66 -100 70 -100 4 0 37 45 74 101 48 72 71 99 82
95 9 -3 27 -6 40 -6 l24 0 0 -215 0 -215 -40 0 -39 0 -3 152 -3 152 -64 -97
c-35 -53 -67 -97 -71 -97 -4 0 -36 44 -71 97 l-64 97 -5 -155 -5 -154 -32 0
-33 0 -1 65 c0 36 -3 132 -5 214 -2 82 -1 152 1 155 2 3 21 7 43 8 l39 2 63
-99z m-9490 -131 l0 -119 -115 0 -115 0 0 123 0 122 115 -3 115 -3 0 -120z
m340 1 l0 -120 -120 0 -120 0 0 120 0 120 120 0 120 0 0 -120z m5488 21 l252
-1 0 -30 0 -30 -1100 0 -1100 0 0 30 0 30 358 2 c196 2 578 2 847 1 270 -1
604 -2 743 -2z m6070 -1 l572 0 0 -30 0 -30 -1100 0 -1100 0 0 30 0 30 188 3
c103 2 340 2 527 1 187 -2 598 -3 913 -4z m-11898 -365 l0 -125 -115 0 -115 0
0 125 0 125 115 0 115 0 0 -125z m340 0 l0 -125 -120 0 -120 0 0 125 0 125
120 0 120 0 0 -125z m4136 -286 c3 -5 -12 -10 -33 -10 l-38 -2 40 -7 40 -7
-42 -2 -41 -1 -7 -48 c-3 -26 -4 -73 -1 -105 5 -52 4 -57 -14 -57 -18 0 -20 9
-22 103 l-3 102 -37 3 c-29 2 -38 8 -38 21 0 16 10 18 95 18 53 0 98 -3 101
-8z m134 -46 l0 -53 60 0 60 0 0 55 c0 48 2 55 20 55 19 0 20 -7 20 -125 0
-118 -1 -125 -20 -125 -18 0 -20 7 -20 55 l0 56 -57 -3 c-58 -3 -58 -3 -63
-38 -5 -34 -6 -34 -14 -10 -8 23 -9 21 -16 -20 -5 -32 -7 -9 -8 80 -2 120 -1
126 18 126 17 0 20 -7 20 -53z m460 45 c0 -5 -38 -8 -85 -8 l-85 0 0 -50 c0
-27 3 -49 8 -48 4 0 14 -2 22 -5 8 -4 40 -8 70 -10 l55 -3 -62 -2 c-60 -2 -63
-3 -63 -27 0 -15 -6 -25 -14 -25 -9 0 -16 -13 -19 -32 -2 -18 -5 23 -5 92 l-2
125 90 0 c50 0 90 -3 90 -7z m322 -18 c10 -14 16 -31 13 -38 -3 -7 -1 -11 4
-8 4 3 14 -6 21 -19 13 -24 30 -34 30 -17 0 5 7 17 15 28 14 18 14 18 10 -5
-4 -23 -4 -23 17 -5 13 12 6 -4 -17 -39 -21 -31 -40 -55 -43 -52 -3 3 3 14 13
25 20 22 19 27 -10 32 -13 2 -19 -2 -17 -12 1 -10 -3 -8 -12 5 -43 58 -49 63
-63 50 -14 -15 -17 -53 -5 -82 5 -13 9 -4 13 32 5 43 6 39 7 -32 2 -77 1 -83
-18 -83 -19 0 -20 7 -20 125 0 123 0 125 23 122 12 -1 30 -13 39 -27z m178
-95 c0 -118 -1 -125 -20 -125 -18 0 -20 7 -20 79 0 78 15 118 23 64 2 -16 5
-2 6 31 1 58 1 58 -25 53 -29 -5 -20 9 11 16 11 3 21 5 23 6 1 0 2 -55 2 -124z
m286 109 c19 -9 34 -21 34 -26 0 -5 -5 -6 -12 -2 -7 4 -8 3 -4 -5 4 -6 12 -9
17 -6 13 9 29 -39 29 -87 0 -32 -7 -47 -34 -74 -28 -28 -41 -34 -72 -33 l-39
1 33 8 c48 11 50 19 4 13 -33 -4 -44 -1 -75 27 -36 32 -47 27 -27 -11 18 -32
1 -21 -20 14 -42 68 -17 152 54 183 41 18 71 17 112 -2z m347 -13 c11 -8 17
-28 17 -51 0 -30 -6 -43 -27 -60 -29 -23 -30 -19 15 -87 13 -21 13 -23 -6 -23
-14 0 -32 16 -52 45 -23 34 -38 45 -58 46 -15 0 -21 3 -14 6 27 10 58 -8 80
-47 12 -22 27 -40 33 -40 6 0 1 16 -11 35 -12 20 -19 42 -16 51 5 12 -3 15
-47 12 l-52 -3 -6 -40 -5 -40 -6 35 c-4 32 -5 30 -8 -15 l-3 -50 -7 50 c-4 35
-5 200 0 200 62 0 161 -14 173 -24z m297 17 c0 -5 -42 -9 -92 -10 -51 -1 -76
-3 -56 -5 l37 -4 8 -62 8 -62 6 55 c5 44 6 35 7 -47 2 -97 1 -103 -18 -103
-19 0 -20 7 -20 105 l0 105 -39 0 c-32 0 -39 3 -36 18 2 9 4 17 4 17 1 0 44 0
96 0 52 0 95 -3 95 -7z m267 -3 c33 -14 35 -17 21 -31 -12 -13 -20 -14 -36 -5
-45 24 -96 11 -117 -30 -22 -41 -18 -73 12 -111 l27 -33 -33 30 c-24 23 -34
27 -40 16 -11 -18 -21 9 -21 58 0 45 29 87 74 107 41 18 69 17 113 -1z m303
-72 c51 -110 56 -124 36 -117 -10 4 -16 1 -16 -7 -1 -9 -4 -8 -11 4 -8 13 -23
17 -65 17 -53 0 -56 -2 -67 -30 -8 -21 -18 -30 -34 -30 -27 0 -27 0 -7 42 15
33 16 33 82 31 57 -1 61 0 27 7 l-40 7 38 2 c42 1 45 10 21 67 -15 36 -17 37
-30 19 -8 -10 -14 -24 -14 -31 0 -7 -4 -15 -8 -18 -5 -3 -7 9 -4 27 3 26 1 29
-8 17 -10 -12 -11 -12 -5 5 24 69 27 74 47 72 15 -1 30 -22 58 -84z m338 63
c23 -22 3 -42 -26 -27 -27 14 -73 13 -93 -2 -68 -52 -40 -150 47 -167 l39 -8
-36 -1 c-29 -1 -43 6 -68 31 -29 30 -31 31 -31 9 0 -16 10 -26 35 -37 38 -15
44 -24 19 -24 -9 0 -31 15 -50 34 -29 29 -34 41 -34 80 0 60 20 99 62 120 40
20 112 16 136 -8z m318 0 c2 -13 -10 -16 -72 -16 l-74 0 0 -35 0 -35 68 -2 67
-2 -67 -3 c-66 -4 -68 -5 -68 -31 0 -19 -3 -23 -9 -14 -6 10 -10 8 -14 -10
-18 -65 -15 -67 86 -71 l92 -3 -97 -2 -98 -2 0 110 c0 67 4 110 10 110 6 0 10
-10 11 -22 0 -22 1 -22 8 -3 6 15 20 21 62 26 54 6 54 6 -18 7 -40 1 -73 5
-73 10 0 4 41 6 92 5 75 -1 92 -4 94 -17z m401 1 c7 -7 9 -17 4 -26 -7 -10
-13 -11 -30 -1 -12 6 -34 10 -49 8 -21 -2 -27 -8 -27 -28 0 -21 8 -27 49 -40
52 -17 76 -41 76 -77 0 -27 -33 -63 -57 -62 -14 0 -13 2 4 9 21 8 43 38 43 57
0 5 -6 17 -13 27 -12 16 -13 14 -9 -17 5 -45 -22 -62 -81 -53 -48 8 -44 -3 5
-14 l33 -8 -36 -1 c-22 -1 -46 6 -59 17 -20 16 -20 19 -6 31 12 10 19 10 38
-3 29 -20 72 -20 89 0 19 23 0 46 -52 64 -64 22 -69 27 -69 69 0 40 11 55 45
64 28 7 88 -2 102 -16z m298 7 c68 -32 86 -147 32 -202 -31 -30 -116 -41 -157
-20 -30 16 -60 72 -60 113 0 63 63 124 128 125 13 0 39 -7 57 -16z m209 -95
l1 -104 30 -6 30 -7 -30 -3 c-17 -1 -2 -5 35 -9 l65 -7 -87 -1 -88 -2 0 125
c0 121 1 125 21 122 20 -3 21 -10 23 -108z m248 40 c-2 -90 14 -131 58 -147
l35 -12 -39 6 c-36 5 -38 4 -27 -10 22 -26 -7 -19 -34 9 -23 22 -25 31 -25
124 0 87 2 99 17 97 14 -2 16 -14 15 -67z m178 -10 c0 -46 -6 -94 -14 -114
-14 -32 -52 -63 -64 -51 -3 3 0 6 6 6 19 0 52 38 52 60 0 11 -4 20 -10 20 -5
0 -10 -6 -10 -13 0 -8 -10 -22 -22 -33 -23 -19 -23 -19 -5 2 10 12 17 37 17
60 0 21 3 62 6 89 5 40 10 51 25 52 17 2 19 -6 19 -78z m280 69 c0 -5 -26 -9
-57 -10 l-58 -1 60 -7 c45 -5 50 -7 23 -8 l-38 -2 -1 -52 c0 -29 -3 -47 -6
-40 -8 21 -23 13 -23 -13 0 -14 -4 -25 -10 -25 -6 0 -10 28 -10 65 l0 65 -42
2 -43 1 45 7 45 7 -43 1 c-84 3 -33 17 62 17 53 0 96 -3 96 -7z m140 -115 c0
-116 -1 -123 -20 -123 -19 0 -20 7 -20 123 0 116 1 123 20 123 19 0 20 -7 20
-123z m309 100 c13 -11 27 -26 29 -33 3 -8 -9 -2 -27 13 -18 15 -40 27 -49 26
-10 0 -4 -7 15 -16 21 -11 36 -28 44 -50 6 -18 15 -33 20 -33 20 0 8 -60 -17
-87 -15 -15 -21 -20 -14 -10 15 21 8 22 -32 1 -20 -10 -44 -14 -67 -11 -33 6
-35 5 -17 -8 19 -15 19 -15 -2 -15 -33 0 -70 41 -83 91 -11 40 -10 51 7 85 35
71 129 94 193 47z m224 -24 c18 -24 43 -60 56 -79 l23 -35 -32 35 c-29 32 -31
33 -26 11 5 -24 5 -24 -22 5 -23 25 -25 31 -12 41 13 10 12 14 -4 32 -30 33
-46 27 -46 -19 0 -29 4 -40 15 -40 12 0 15 -15 15 -75 0 -68 -2 -75 -20 -75
-19 0 -20 7 -20 123 0 117 1 124 20 122 10 -1 34 -21 53 -46z m137 -76 c0
-114 -1 -123 -19 -123 -12 0 -34 21 -56 53 -29 39 -31 46 -12 28 43 -39 52
-26 49 75 -4 85 -3 90 17 90 20 0 21 -5 21 -123z m440 117 c0 -6 -36 -9 -92
-8 l-93 2 90 6 c50 3 91 7 93 8 1 1 2 -2 2 -8z m165 -27 c14 -21 25 -42 25
-48 0 -5 -5 -2 -11 7 -5 10 -19 23 -31 29 l-21 11 20 -28 c11 -16 23 -36 28
-44 13 -25 -8 0 -49 58 l-38 52 26 0 c18 0 32 -11 51 -37z m145 29 c0 -2 -18
-27 -40 -56 -22 -29 -40 -56 -40 -60 0 -4 18 -34 40 -67 40 -58 40 -59 16 -59
-18 0 -32 12 -53 45 -15 25 -31 45 -35 45 -3 0 -18 -20 -32 -45 -21 -34 -33
-45 -52 -45 -15 0 -23 4 -19 10 4 6 10 8 14 6 4 -3 12 -2 18 2 12 8 69 82 97
127 10 17 30 42 44 58 21 22 23 27 9 27 -9 0 -17 -3 -17 -7 0 -5 -14 -24 -31
-43 l-30 -35 32 50 c23 37 38 50 55 50 13 0 24 -1 24 -3z m270 -29 c28 -36 25
-69 -9 -104 -24 -24 -38 -29 -75 -29 -37 0 -46 -3 -46 -17 -1 -14 -4 -12 -15
7 -13 24 -14 24 -17 -25 -3 -27 -5 6 -6 75 l-2 125 75 -3 c66 -3 77 -6 95 -29z
m290 15 c0 -16 -10 -18 -70 -18 l-70 0 0 -35 0 -35 68 -2 67 -2 -60 -3 c-33
-2 -66 -6 -73 -8 -7 -2 -16 -4 -20 -5 -4 0 -10 -28 -13 -62 -4 -49 -6 -34 -7
62 l-2 125 90 0 c79 0 90 -2 90 -17z m580 0 c0 -14 -8 -18 -37 -17 l-38 2 35
7 c25 5 10 8 -57 9 -51 0 -93 4 -93 9 0 4 43 7 95 7 84 0 95 -2 95 -17z m-302
-4 c27 -18 31 -84 6 -108 -22 -22 -31 -20 -11 2 10 10 17 26 17 36 0 13 -6 10
-26 -13 -21 -26 -34 -31 -72 -32 -28 -1 -36 -4 -20 -6 14 -2 32 -12 40 -21 11
-15 11 -16 -4 -4 -10 8 -26 10 -43 6 -24 -6 -26 -10 -23 -45 3 -35 1 -39 -19
-39 -22 0 -23 4 -23 63 0 34 3 73 7 86 6 23 7 23 14 5 6 -15 8 -12 10 16 l2
35 6 -40 c6 -39 7 -40 49 -43 49 -4 72 10 72 44 0 28 -13 37 -70 45 l-45 6 55
3 c52 4 51 4 -25 10 l-80 6 80 2 c59 2 86 -2 103 -14z m-6735 -11 l-73 -4 -1
-32 c0 -26 -2 -28 -8 -12 -17 42 4 55 82 53 l72 -2 -72 -3z m1485 0 c-10 -2
-28 -2 -40 0 -13 2 -5 4 17 4 22 1 32 -1 23 -4z m3943 -35 l2 -43 6 40 6 40
75 1 75 1 -72 -4 -73 -4 0 -34 0 -35 63 0 c50 0 64 -3 64 -15 0 -12 -14 -15
-64 -15 l-63 0 -1 -37 -2 -38 -7 35 c-6 26 -8 29 -9 11 0 -13 -4 -21 -8 -17
-5 4 -8 41 -8 82 0 78 14 105 16 32z m1509 -68 l6 -105 5 100 5 100 2 -102 c2
-86 -1 -103 -13 -103 -12 0 -15 18 -15 104 l0 105 -47 4 -48 4 50 -1 50 -1 5
-105z m-6917 23 c-18 -2 -48 -2 -65 0 -18 2 -4 4 32 4 36 0 50 -2 33 -4z
m1785 -19 c-2 -8 -7 -15 -13 -14 -5 1 -13 -9 -17 -22 l-6 -23 -1 23 c-1 18 -7
22 -31 22 -20 0 -30 5 -30 15 0 11 12 15 51 15 40 0 50 -3 47 -16z m630 -21
c-1 -37 -1 -37 -5 -5 -3 25 -9 32 -26 31 -12 0 -16 -3 -9 -6 6 -2 11 -17 11
-31 -2 -24 -2 -24 -6 -4 -3 17 -11 22 -34 22 -19 0 -29 5 -29 15 0 11 12 15
50 15 l50 0 -2 -37z m245 20 c-18 -2 -48 -2 -65 0 -18 2 -4 4 32 4 36 0 50 -2
33 -4z m3056 -47 c-18 -25 -34 -44 -37 -42 -4 5 61 95 66 91 2 -2 -11 -23 -29
-49z m678 47 c-20 -2 -52 -2 -70 0 -17 2 0 4 38 4 39 0 53 -2 32 -4z m-100
-35 c-3 -8 -6 -5 -6 6 -1 11 2 17 5 13 3 -3 4 -12 1 -19z m443 -70 c0 -16 -48
-7 -55 10 -5 14 -4 15 6 5 7 -7 19 -13 27 -13 10 0 8 9 -8 33 l-22 32 26 -30
c14 -16 26 -33 26 -37z m-5135 22 c10 -11 16 -20 13 -20 -3 0 -13 9 -23 20
-10 11 -16 20 -13 20 3 0 13 -9 23 -20z m185 5 c0 -2 -10 -10 -22 -16 -21 -11
-22 -11 -9 4 13 16 31 23 31 12z m5340 -15 c0 -13 -7 -20 -20 -20 -13 0 -20 7
-20 20 0 13 7 20 20 20 13 0 20 -7 20 -20z m-7080 -5 c0 -12 -12 -15 -57 -13
l-58 2 55 4 c41 3 50 6 35 12 -19 8 -19 9 3 9 13 1 22 -5 22 -14z m1658 8
c-10 -2 -26 -2 -35 0 -10 3 -2 5 17 5 19 0 27 -2 18 -5z m3859 -15 c-3 -8 -6
-5 -6 6 -1 11 2 17 5 13 3 -3 4 -12 1 -19z m861 15 c-15 -2 -42 -2 -60 0 -18
2 -6 4 27 4 33 0 48 -2 33 -4z m-6838 -13 c0 -5 -5 -10 -11 -10 -5 0 -7 5 -4
10 3 6 8 10 11 10 2 0 4 -4 4 -10z m2516 -8 c-10 -2 -22 0 -28 6 -6 6 0 7 19
4 21 -5 23 -7 9 -10z m2144 8 c0 -5 -11 -10 -25 -10 -14 0 -25 5 -25 10 0 6
11 10 25 10 14 0 25 -4 25 -10z m1230 -6 c0 -2 -21 -4 -46 -4 -25 0 -43 4 -40
8 4 7 86 4 86 -4z m933 -1 c-23 -2 -64 -2 -90 0 -26 2 -7 3 42 3 50 0 71 -1
48 -3z"/>
<path d="M6293 6460 c0 -25 2 -35 4 -22 2 12 2 32 0 45 -2 12 -4 2 -4 -23z"/>
<path d="M6273 6085 c0 -77 2 -124 5 -105 5 33 5 34 12 10 5 -15 8 19 8 85 0
67 -3 102 -8 90 -6 -16 -9 -12 -12 20 -3 22 -5 -23 -5 -100z"/>
<path d="M6273 5770 c0 -74 2 -121 5 -105 6 29 6 29 12 -10 4 -23 7 23 7 105
0 90 -3 126 -7 95 l-6 -50 -5 50 c-3 28 -6 -11 -6 -85z"/>
<path d="M6292 5590 c0 -14 2 -19 5 -12 2 6 2 18 0 25 -3 6 -5 1 -5 -13z"/>
<path d="M6289 5483 c-2 -56 -2 -56 -9 -18 -4 25 -7 -14 -7 -100 0 -77 2 -122
4 -101 3 29 7 36 14 25 5 -9 9 35 9 119 0 72 -2 132 -5 132 -3 0 -6 -26 -6
-57z"/>
<path d="M6289 5213 c-1 -52 -2 -54 -9 -23 -5 22 -8 -13 -8 -95 0 -74 3 -121
7 -110 l8 20 5 -20 c3 -11 6 49 7 133 0 83 -1 152 -4 152 -3 0 -6 -26 -6 -57z"/>
<path d="M6289 4858 c-2 -49 -2 -51 -9 -18 -4 19 -7 -107 -7 -280 1 -173 3
-288 6 -255 l5 60 6 -70 c4 -38 7 84 8 273 1 188 0 342 -3 342 -3 0 -6 -24 -6
-52z"/>
<path d="M6274 4110 c0 -63 1 -89 3 -57 2 31 2 83 0 115 -2 31 -3 5 -3 -58z"/>
<path d="M6293 4100 c0 -47 2 -66 4 -42 2 23 2 61 0 85 -2 23 -4 4 -4 -43z"/>
<path d="M6273 3750 c-1 -118 2 -204 7 -190 7 24 7 23 12 -10 3 -19 5 66 5
190 0 124 -3 209 -7 190 l-7 -35 -5 35 c-2 19 -5 -62 -5 -180z"/>
<path d="M6290 3377 c0 -13 -5 -28 -12 -35 -9 -9 -8 -12 5 -12 13 0 17 9 17
35 0 19 -2 35 -5 35 -3 0 -5 -10 -5 -23z"/>
<path d="M9958 5284 c-5 -4 -8 -70 -8 -146 l0 -138 133 0 c153 0 192 9 233 51
26 27 29 37 29 94 0 49 -4 68 -20 85 -41 46 -73 54 -220 58 -77 2 -143 1 -147
-4z"/>
<path d="M11290 5180 l0 -110 140 0 c162 0 199 11 226 69 15 31 15 40 3 76
-22 64 -55 75 -226 75 l-143 0 0 -110z"/>
<path d="M11290 4795 l0 -115 165 0 c131 0 171 3 198 16 86 41 89 152 5 195
-32 16 -59 19 -203 19 l-165 0 0 -115z"/>
<path d="M13920 5146 l0 -146 138 0 c123 0 142 2 182 23 60 30 84 66 84 124 0
58 -22 95 -72 120 -29 14 -67 18 -184 21 l-148 4 0 -146z"/>
<path d="M11708 3982 c-15 -37 -30 -75 -34 -84 -5 -16 1 -18 65 -18 39 0 71 3
71 6 0 3 -13 36 -30 74 -16 38 -30 73 -30 79 0 28 -17 5 -42 -57z"/>
<path d="M7553 3140 c0 -47 2 -66 4 -42 2 23 2 61 0 85 -2 23 -4 4 -4 -43z"/>
<path d="M7921 3197 c-9 -12 -31 -18 -70 -19 l-56 -1 60 -6 c59 -6 60 -6 66
-41 8 -48 21 -17 17 41 -3 37 -5 40 -17 26z"/>
<path d="M8591 3194 c0 -11 3 -14 6 -6 3 7 2 16 -1 19 -3 4 -6 -2 -5 -13z"/>
<path d="M8733 3095 c0 -22 2 -30 4 -17 2 12 2 30 0 40 -3 9 -5 -1 -4 -23z"/>
<path d="M8925 3238 c-15 -14 -28 -38 -32 -60 -5 -32 -1 -41 25 -68 29 -29 78
-41 96 -22 4 4 17 7 29 7 38 0 63 87 36 125 -8 11 -9 7 -5 -17 7 -43 -3 -90
-20 -97 -11 -4 -12 -1 -4 14 21 39 7 99 -29 127 -25 19 -68 15 -96 -9z"/>
<path d="M9222 3233 l1 -48 4 42 4 42 57 4 57 3 -62 2 -63 2 2 -47z"/>
<path d="M9240 3215 l0 -45 48 0 c50 0 72 12 72 41 0 30 -29 49 -76 49 l-44 0
0 -45z"/>
<path d="M9855 3283 c-11 -3 -24 -10 -30 -15 -7 -7 -2 -8 15 -2 32 10 81 7 94
-6 13 -13 26 -13 26 0 0 8 -66 32 -80 29 -3 -1 -14 -3 -25 -6z"/>
<path d="M9781 3214 c0 -11 3 -14 6 -6 3 7 2 16 -1 19 -3 4 -6 -2 -5 -13z"/>
<path d="M10220 3219 c0 -20 16 -43 23 -32 3 4 -1 17 -9 28 -10 13 -14 15 -14
4z"/>
<path d="M10429 3251 c-28 -29 -39 -61 -19 -61 5 0 6 7 3 17 -4 9 -2 14 3 12
5 -3 23 10 41 28 40 42 14 45 -28 4z"/>
<path d="M10550 3266 c14 -7 29 -10 34 -8 11 6 -20 20 -44 21 -8 0 -4 -5 10
-13z"/>
<path d="M11270 3266 c14 -7 29 -11 34 -8 12 6 -15 22 -39 22 -17 0 -17 -2 5
-14z"/>
<path d="M11173 3234 c-3 -9 -2 -24 4 -33 11 -17 79 -44 97 -38 6 3 -8 10 -31
16 -42 11 -70 42 -58 61 3 6 4 10 0 10 -3 0 -8 -7 -12 -16z"/>
<path d="M11471 3254 c-28 -23 -31 -32 -31 -81 0 -47 4 -59 29 -84 24 -23 38
-29 75 -29 24 0 48 5 51 10 4 7 -3 8 -20 4 -39 -10 -105 15 -116 44 -21 55 6
133 54 152 16 6 17 9 5 9 -9 1 -30 -11 -47 -25z"/>
<path d="M11486 3229 c-35 -41 -34 -83 3 -120 18 -17 40 -29 56 -29 37 0 85
50 85 88 0 45 -43 92 -85 92 -25 0 -40 -8 -59 -31z"/>
<path d="M11641 3165 c1 -40 1 -40 10 -10 5 18 5 33 -1 39 -7 7 -10 -4 -9 -29z"/>
<path d="M11793 3185 c0 -44 2 -61 4 -37 2 23 2 59 0 80 -2 20 -4 1 -4 -43z"/>
<path d="M12043 3210 c0 -41 2 -58 4 -37 2 20 2 54 0 75 -2 20 -4 3 -4 -38z"/>
<path d="M12210 3260 c0 -11 2 -20 4 -20 2 0 6 9 9 20 3 11 1 20 -4 20 -5 0
-9 -9 -9 -20z"/>
<path d="M12632 3220 c-2 -38 1 -60 7 -60 7 0 11 24 11 60 0 33 -3 60 -8 60
-4 0 -9 -27 -10 -60z"/>
<path d="M12635 3070 c3 -5 8 -10 11 -10 2 0 4 5 4 10 0 6 -5 10 -11 10 -5 0
-7 -4 -4 -10z"/>
<path d="M12840 3270 c-8 -5 -10 -10 -5 -10 6 0 17 5 25 10 8 5 11 10 5 10 -5
0 -17 -5 -25 -10z"/>
<path d="M12843 3245 c-14 -10 -24 -12 -28 -5 -4 6 -11 8 -16 4 -5 -3 -7 -10
-3 -15 3 -5 10 -6 16 -3 8 5 9 1 5 -10 -4 -10 -7 -34 -7 -54 0 -29 -3 -34 -11
-22 -9 13 -10 13 -6 0 2 -8 8 -15 13 -15 5 0 20 -10 34 -22 46 -44 111 -21
129 44 22 80 -60 144 -126 98z"/>
<path d="M12986 3125 c-9 -26 -7 -32 5 -12 6 10 9 21 6 23 -2 3 -7 -2 -11 -11z"/>
<path d="M13130 3124 c0 -21 4 -33 10 -29 6 3 10 19 10 36 0 16 -4 29 -10 29
-5 0 -10 -16 -10 -36z"/>
<path d="M13306 3205 c0 -41 4 -78 7 -82 4 -3 7 30 7 75 0 45 -3 82 -7 82 -5
0 -8 -34 -7 -75z"/>
<path d="M14000 3123 c1 -14 38 -58 44 -52 4 3 -5 18 -19 33 -14 15 -25 23
-25 19z"/>
<path d="M14243 3273 c15 -2 37 -2 50 0 12 2 0 4 -28 4 -27 0 -38 -2 -22 -4z"/>
<path d="M14192 3235 c0 -16 2 -22 5 -12 2 9 2 23 0 30 -3 6 -5 -1 -5 -18z"/>
<path d="M14220 3209 l0 -52 45 5 c24 3 42 2 39 -3 -3 -5 -1 -9 5 -9 5 0 9 8
9 18 0 9 3 25 6 34 11 26 -27 58 -69 58 l-35 0 0 -51z"/>
<path d="M14233 3143 c9 -2 25 -2 35 0 9 3 1 5 -18 5 -19 0 -27 -2 -17 -5z"/>
<path d="M14523 3273 c20 -2 54 -2 75 0 20 2 3 4 -38 4 -41 0 -58 -2 -37 -4z"/>
<path d="M14755 3070 c3 -5 8 -10 11 -10 2 0 4 5 4 10 0 6 -5 10 -11 10 -5 0
-7 -4 -4 -10z"/>
<path d="M13653 3173 c9 -2 25 -2 35 0 9 3 1 5 -18 5 -19 0 -27 -2 -17 -5z"/>
</g>
</svg>
